<svg xmlns="http://www.w3.org/2000/svg" width="160" height="160" viewBox="0 0 160 160">
  <defs>
    <linearGradient id="logoGradient" x1="0%" y1="0%" x2="100%" y2="100%">
      <stop offset="0%" stop-color="#314427" />
      <stop offset="100%" stop-color="#9eb589" />
    </linearGradient>
  </defs>
  <circle cx="80" cy="80" r="78" fill="url(#logoGradient)" />
  <circle cx="80" cy="80" r="72" fill="#fbf5e8" />
  <path d="M56 98c7 17 48 17 55-4 3-9-1-16-10-18 7-2 11-6 11-13 0-12-12-20-28-20-18 0-33 12-33 30 0 8 4 15 10 21-5 2-7 5-5 10z" fill="#314427" opacity="0.88" />
  <path d="M64 62c3-6 11-10 19-10 10 0 18 5 18 12 0 6-5 10-13 11-13 2-22 1-24-6z" fill="#fbf5e8" opacity="0.95" />
  <circle cx="88" cy="80" r="6" fill="#fbf5e8" />
  <text x="80" y="128" text-anchor="middle" font-family="'Inter', 'Segoe UI', sans-serif" font-size="22" font-weight="700" fill="#314427" letter-spacing="2">
    amarantha
  </text>
</svg>
